<svg width="936" height="596" viewBox="0 0 936 596" fill="none" xmlns="http://www.w3.org/2000/svg">
<path d="M396.431 109.572C388.992 122.846 383.996 138.255 380.93 152.538C372.405 161.256 363.582 170.365 356.629 179.554C348.627 190.129 341.544 202.751 340.528 217.602C340.463 218.554 340.476 219.51 340.566 220.46C342.362 239.274 357.078 248.904 367.629 252.599C373.149 254.532 379.27 253.58 383.941 250.062C388.613 246.543 391.219 240.924 390.885 235.085C390.76 232.895 390.876 230.631 391.202 228.322C399.758 239.918 413.091 247.662 430.363 246.046C432.001 245.893 433.61 245.509 435.141 244.906C450.609 238.819 461.885 228.167 470.05 215.588C470.878 216.346 471.741 217.069 472.637 217.757C479.335 222.904 486.989 225.398 494.3 226.253C496.138 226.469 497.999 226.391 499.813 226.023C508.052 224.352 520.144 218.723 528.792 211.53C531.489 213.244 534.598 214.596 538.171 215.447C539.045 215.656 539.934 215.796 540.83 215.868C556.955 217.159 569.174 210.664 577.741 201.363C579.247 202.193 580.612 202.774 581.636 203.159C586.785 205.093 593.179 205.949 599.285 204.71C604.466 203.66 608.756 200.37 611.175 195.933C611.921 196.277 612.595 196.552 613.165 196.766C618.313 198.7 624.708 199.556 630.814 198.317C636.121 197.241 640.493 193.815 642.878 189.213C644.473 189.898 646.005 190.398 647.362 190.768C652.501 192.171 659.14 192.766 665.09 191.358C670.216 190.145 674.523 186.688 676.816 181.946C678.034 179.427 683.029 171.689 689.3 163.252C692.275 159.249 695.225 155.512 697.731 152.614C699.554 150.504 700.66 149.412 701.106 148.972C701.39 148.691 701.406 148.676 701.167 148.831C705.832 145.795 708.775 140.72 709.093 135.164C709.411 129.607 707.067 124.23 702.779 120.681C698.778 117.371 693.769 115.111 688.264 114.858C688.689 112.944 689.11 111.104 689.524 109.363C689.876 107.934 690.096 106.406 690.189 105.731C690.287 105.031 690.551 103.1 690.546 101.302C690.543 100.15 690.426 99.0005 690.197 97.8711C689.326 93.5738 687.169 90.6258 685.922 89.1486C684.558 87.532 683.144 86.3466 682.124 85.5693C680.084 84.0149 677.939 82.8303 676.361 82.0314C673.296 80.4801 669.69 79.0546 667.232 78.3913C666.763 78.2649 666.29 78.158 665.813 78.071C658.788 76.7895 652.989 79.1985 649.342 81.5775C646.619 83.3542 644.455 85.4956 642.8 87.449C640.272 86.2962 637.633 85.3052 635.703 84.7842C635.234 84.6578 634.761 84.551 634.284 84.4639C627.259 83.1824 621.46 85.5915 617.814 87.9705C616.299 88.9586 614.957 90.0595 613.78 91.1782C611.489 90.5229 609.356 90.1721 607.802 89.9603C604.884 89.5625 601.908 89.3963 599.359 89.3891C597.375 89.3836 593.868 89.4489 590.74 90.2398C585.791 91.491 581.72 94.8101 579.459 99.2162C575.976 97.7053 572.586 96.9592 569.897 96.6032C563.778 95.7928 557.119 96.395 552.088 98.281C551.14 98.6368 550.223 99.0743 549.35 99.5887C546.805 101.088 544.428 102.787 542.211 104.643C535.634 100.82 524.903 97.6774 512.992 103.438C512.228 103.808 511.496 104.23 510.802 104.7C510.672 104.682 510.54 104.664 510.407 104.648C507.643 104.31 504.839 104.637 502.226 105.6C497.608 107.304 493.638 109.58 490.307 112.325C490.043 108.477 489.698 104.769 489.287 101.241C488.768 96.7906 486.563 92.7087 483.124 89.836C478.308 85.8116 472.842 85.121 470.384 84.9401C468.073 84.7699 465.792 84.8906 463.663 85.1803C463.633 85.1492 463.602 85.1181 463.572 85.087C457.923 79.3604 450.575 76.1576 442.456 75.2531C440.463 75.031 438.446 75.1533 436.493 75.6147C417.403 80.1268 404.612 94.9727 396.431 109.572ZM694.334 147.327C694.447 147.197 694.438 147.23 694.303 147.362L694.334 147.327ZM430.626 168.02C432.504 165.774 434.399 163.613 436.335 161.5C435.958 164.017 435.516 166.542 435.004 169.046C433.736 175.244 432.171 180.66 430.378 185.291C430.018 178.68 430.198 172.424 430.626 168.02Z" fill="white" stroke="#1814AC" stroke-width="35" stroke-linecap="round" stroke-linejoin="round"/>
<path d="M236.496 477.291C237.863 475.485 239.205 473.656 240.519 471.81C240.791 472.274 241.085 472.726 241.4 473.165C247.212 481.255 256.897 484.813 262.945 486.4C269.842 488.21 278.069 489.01 285.412 487.802C287.664 487.432 289.822 486.624 291.764 485.425C298.96 480.983 305.07 474.559 310.282 467.362C314.261 470.742 318.73 473.1 322.693 474.635C330.441 477.636 340.078 479.03 349.302 476.858C353.843 475.788 357.77 472.949 360.209 468.972C361.882 466.244 364.292 462.413 367.212 457.885C370.825 460.616 374.623 462.403 377.517 463.49C385.33 466.425 394.916 467.618 403.571 465.863C411.145 464.327 416.815 458.005 417.52 450.309C418.032 444.725 419.466 433.441 420.561 425.752C420.612 426.542 420.716 427.329 420.874 428.108C423.583 441.468 435.315 447.85 442.094 450.396C449.907 453.331 459.493 454.524 468.148 452.769C475.722 451.233 481.392 444.911 482.098 437.215C482.609 431.631 484.043 420.347 485.138 412.658C485.189 413.449 485.293 414.236 485.451 415.014C487.137 423.329 492.66 428.599 496.898 431.516C501.267 434.522 506.177 436.404 510.516 437.588C518.894 439.874 529.293 440.648 537.774 438.642C538.984 438.356 540.148 437.944 541.25 437.421C540.384 447.917 539.787 457.207 539.52 464.779C539.354 469.489 541.095 474.067 544.348 477.477C556.013 489.701 569.46 492.439 582.366 492.724C591.796 492.931 599.695 485.627 600.224 476.209C600.682 468.044 604.004 441.359 606.934 419.399C610.759 421.285 615.085 422.769 619.807 423.235C621.543 423.406 623.295 423.317 625.004 422.971C625.323 422.906 626.623 422.644 627.947 422.315C628.561 422.163 629.554 421.905 630.585 421.556C631.062 421.395 631.988 421.068 633.045 420.556C633.571 420.301 634.469 419.839 635.49 419.135C635.739 418.963 636.117 418.696 636.574 418.327C644.617 412.256 651.346 403.562 656.876 394.36C661.464 386.726 665.615 378.087 669.256 368.947C684.529 362.38 698.756 355.897 705.628 351.695C705.72 351.639 705.811 351.583 705.901 351.525C710.805 348.401 717.661 343.094 721.252 334.59C725.371 324.835 723.708 314.696 718.479 305.779C715.62 300.903 710.581 297.708 704.951 297.202C699.32 296.695 693.792 298.94 690.109 303.228C690.143 303.188 690.136 303.194 690.077 303.249C689.873 303.434 689.06 304.177 687.229 305.503C686.932 305.718 686.621 305.939 686.296 306.167C686.886 302.238 687.377 298.351 687.764 294.533C689.411 278.245 689.283 261.848 685.738 248.577C683.084 238.528 676.354 229.979 668.896 224.498C661.883 219.343 649.87 213.943 637.196 218.789C635.075 219.6 633.132 220.816 631.475 222.37C629.819 223.923 628.193 225.533 626.601 227.187C621.638 225.118 615.966 224.055 611.378 223.452C606.209 222.773 600.819 222.484 596.17 222.506C592.243 222.524 586.663 222.746 582.312 224.069C576.405 225.864 571.881 230.638 570.406 236.634C569.091 241.984 567.737 248.118 566.366 254.872C566.161 254.709 565.96 254.554 565.766 254.405C562.853 252.186 559.568 250.339 556.798 248.936C551.348 246.178 545.148 243.781 541.604 242.824C541.136 242.698 540.662 242.591 540.185 242.504C531.828 240.979 524.697 243.787 519.765 247.004C514.94 250.152 511.107 254.356 508.198 258.2C508.026 258.427 507.86 258.658 507.7 258.892C506.089 261.252 503.93 264.227 501.423 267.679C501.344 267.618 501.266 267.558 501.189 267.499C498.276 265.279 494.991 263.433 492.221 262.03C486.771 259.272 480.571 256.875 477.027 255.918C476.559 255.792 476.085 255.685 475.608 255.598C467.25 254.073 460.12 256.881 455.188 260.098C450.362 263.246 446.53 267.45 443.621 271.294C443.449 271.521 443.283 271.752 443.123 271.986C442.791 272.473 442.435 272.985 442.059 273.523C440.561 272.488 439.153 271.749 438.059 271.23C432.915 268.788 426.859 267.623 422.183 266.985C417.12 266.295 411.843 265.996 407.317 265.983C403.355 265.972 398.193 266.159 394.21 267.166C387.658 268.823 382.646 274.102 381.333 280.731C381.229 281.252 381.126 281.774 381.023 282.294C376.034 280.105 370.304 279.02 365.786 278.411C360.715 277.728 355.437 277.432 350.908 277.42C346.945 277.41 341.783 277.597 337.8 278.604C332.034 280.062 327.442 284.334 325.536 289.891C317.951 287.809 310.096 285.981 303.036 285.071C299.496 284.484 295.654 284.874 292.038 286.598C290.538 287.313 289.278 288.165 288.241 289.029C277.798 297.074 269.335 310.031 262.673 323.401C255.627 337.539 249.592 354.207 244.998 371.192C244.072 374.617 243.199 378.074 242.385 381.545C232.002 376.367 220.193 374.81 209.916 376.14C203.431 376.98 197.955 381.365 195.718 387.51C193.867 392.595 194.49 398.183 197.269 402.686C197.322 403.913 197.235 405.954 196.774 408.899C195.715 415.663 193.092 424.685 189.145 434.412C186.016 442.125 182.223 449.865 178.095 456.817C176.395 443.843 175.932 428.175 177.063 410.899C178.388 390.65 181.813 369.577 187.149 350.138C189.013 352.134 190.95 353.907 192.802 355.443C199.968 361.386 209.092 366.48 218.944 369.969C224.841 372.058 231.404 370.839 236.159 366.774C240.913 362.708 243.136 356.414 241.989 350.264C241.595 348.151 241.585 343.185 242.854 335.128C244.05 327.536 246.138 318.652 248.79 309.525C254.218 290.845 261.335 273.438 266.391 265.306C269.685 260.008 269.909 253.356 266.979 247.848C264.049 242.339 258.407 238.808 252.173 238.578C248.238 238.433 244.494 238.742 240.996 239.327C240.195 236.77 239.206 234.251 238.001 231.795C232.918 221.429 224.476 213.215 212.698 208.328C207.826 206.307 202.302 206.591 197.662 209.102C149.909 234.945 126.431 286.353 115.329 333.428C92.8191 359.235 69.6177 388.533 51.5076 419.428C32.6878 451.533 18.613 486.62 17.5084 522.197C17.4552 523.911 17.6543 525.624 18.0993 527.28C25.7788 555.864 51.0703 571.238 71.4721 577.277C77.4251 579.039 83.8661 577.515 88.3984 573.273C92.9308 569.03 94.8761 562.703 93.5104 556.647C85.9523 523.13 92.551 487.049 107.814 451.088C110.368 472.566 115.456 492.543 123.661 508.807C124.962 511.386 126.88 513.603 129.246 515.259C140.276 522.985 157.72 527.39 171.892 528.027C174.058 528.124 176.223 527.818 178.277 527.125C189.029 523.493 199.727 515.82 209.062 507.459C218.698 498.828 228.194 488.268 236.496 477.291ZM197.157 401.638C197.16 401.634 197.177 401.698 197.198 401.842C197.164 401.714 197.154 401.642 197.157 401.638Z" fill="white" stroke="#1814AC" stroke-width="35" stroke-linecap="round" stroke-linejoin="round"/>
<path d="M797.589 236.724C804.825 235.458 811.11 234.501 816.13 234.011C816.018 236.393 815.954 238.555 815.941 240.471C815.931 241.896 816.095 243.317 816.43 244.702C819.388 256.945 829.924 262.625 836.131 264.912C843.165 267.505 851.313 268.391 858.58 267.385C866.491 266.289 872.656 259.976 873.565 252.041C876.102 229.888 881.743 191.186 889.371 151.565C897.065 111.598 906.518 72.1249 916.411 47.632C918.335 42.8706 918.07 37.5047 915.686 32.9561C911.379 24.735 903.403 21.4003 899.082 20.0068C893.976 18.36 888.465 17.685 883.564 17.5341C878.581 17.3806 873.368 17.7437 868.616 18.6633C865.768 19.2147 861.711 20.2102 857.777 22.2505C855.039 23.3336 852.566 25.1101 850.634 27.487C845.084 34.3175 837.846 40.2969 830.728 44.5336C823.161 49.0378 817.7 50.42 815.741 50.4673C810.799 50.5864 806.139 52.7896 802.911 56.5325C799.683 60.2754 798.188 65.2089 798.796 70.1141C799.89 78.9476 805.133 87.0231 811.565 92.5349C817.114 97.2904 824.576 101.045 833.364 101.885C830.029 121.088 826.828 141.563 824.099 160.985C821.715 159.449 818.859 158.309 815.49 157.846C815.269 157.816 815.048 157.79 814.826 157.768C815.799 154.192 815.614 150.394 814.286 146.922C810.906 138.082 803.12 135.172 799.181 134.327C795.037 133.438 791.143 133.768 788.38 134.25C785.44 134.764 782.416 135.692 779.637 137.007C777.368 138.081 773.214 140.355 770.107 144.639C767.418 142.935 764.724 142.084 762.876 141.688C758.732 140.799 754.838 141.129 752.076 141.612C749.136 142.125 746.112 143.053 743.333 144.368C741.028 145.458 736.781 147.786 733.659 152.199C732.316 154.099 731.365 156.246 730.861 158.517C730.024 162.293 729.053 166.859 728.058 171.927C721.939 173.289 716.365 174.568 711.868 175.7C709.93 176.188 708.089 177.004 706.427 178.113C701.63 181.314 699.199 185.845 698.101 188.229C696.77 191.12 695.883 194.238 695.428 197.221C694.999 200.029 694.759 203.959 695.756 208.102C696.267 210.227 697.444 213.566 699.914 216.655C698.606 218.501 697.764 220.224 697.254 221.372C695.987 224.222 695.139 227.3 694.707 230.254C694.301 233.03 694.077 236.938 695.078 241.057C696.015 244.916 699.175 252.858 708.394 255.904C710.773 256.69 713.278 256.951 715.74 256.688C715.691 257.492 715.649 258.271 715.615 259.023C715.563 260.174 715.625 261.328 715.8 262.467C717.389 272.805 725.272 278.063 731.234 279.846C736.919 281.546 742.959 281.061 748.049 279.028C753.247 276.953 757.067 272.554 758.471 267.279C761.323 269.947 764.656 271.622 767.538 272.484C773.223 274.185 779.263 273.7 784.354 271.667C790.603 269.172 794.867 263.315 795.324 256.601C795.681 251.35 796.461 244.498 797.589 236.724Z" fill="white" stroke="#1814AC" stroke-width="35" stroke-linecap="round" stroke-linejoin="round"/>
</svg>
